<svg width="25" height="24" viewBox="0 0 25 24" fill="none" xmlns="http://www.w3.org/2000/svg">
<g clip-path="url(#clip0_346_2021)">
<path d="M9.63171 22C10.184 22 10.6317 21.5523 10.6317 21C10.6317 20.4477 10.184 20 9.63171 20C9.07943 20 8.63171 20.4477 8.63171 21C8.63171 21.5523 9.07943 22 9.63171 22Z" stroke="#5D6066" strokeWidth="2" strokeLinecap="round" strokeLinejoin="round"/>
<path d="M20.6317 22C21.184 22 21.6317 21.5523 21.6317 21C21.6317 20.4477 21.184 20 20.6317 20C20.0794 20 19.6317 20.4477 19.6317 21C19.6317 21.5523 20.0794 22 20.6317 22Z" stroke="#5D6066" strokeWidth="2" strokeLinecap="round" strokeLinejoin="round"/>
<path d="M1.63171 1H5.63171L8.31171 14.39C8.40316 14.8504 8.65362 15.264 9.01926 15.5583C9.3849 15.8526 9.84241 16.009 10.3117 16H20.0317C20.501 16.009 20.9585 15.8526 21.3242 15.5583C21.6898 15.264 21.9403 14.8504 22.0317 14.39L23.6317 6H6.63171" stroke="#5D6066" strokeWidth="2" strokeLinecap="round" strokeLinejoin="round"/>
</g>
<defs>
<clipPath id="clip0_346_2021">
<rect width="24" height="24" fill="white" transform="translate(0.631714)"/>
</clipPath>
</defs>
</svg>
