<svg width="25" height="24" viewBox="0 0 25 24" fill="none" xmlns="http://www.w3.org/2000/svg">
<path d="M3.63171 19H2.63171H3.63171ZM5.63171 3V2V3ZM20.6317 19C20.6317 19.2652 20.5264 19.5196 20.3388 19.7071L21.753 21.1213C22.3156 20.5587 22.6317 19.7957 22.6317 19H20.6317ZM20.3388 19.7071C20.1513 19.8946 19.8969 20 19.6317 20V22C20.4274 22 21.1904 21.6839 21.753 21.1213L20.3388 19.7071ZM19.6317 20H5.63171V22H19.6317V20ZM5.63171 20C5.3665 20 5.11214 19.8946 4.92461 19.7071L3.51039 21.1213C4.073 21.6839 4.83606 22 5.63171 22V20ZM4.92461 19.7071C4.73707 19.5196 4.63171 19.2652 4.63171 19H2.63171C2.63171 19.7957 2.94778 20.5587 3.51039 21.1213L4.92461 19.7071ZM4.63171 19V5H2.63171V19H4.63171ZM4.63171 5C4.63171 4.73478 4.73707 4.48043 4.92461 4.29289L3.51039 2.87868C2.94778 3.44129 2.63171 4.20435 2.63171 5H4.63171ZM4.92461 4.29289C5.11214 4.10536 5.3665 4 5.63171 4V2C4.83606 2 4.073 2.31607 3.51039 2.87868L4.92461 4.29289ZM5.63171 4H19.6317V2H5.63171V4ZM22.6317 5C22.6317 4.20435 22.3156 3.44129 21.753 2.87868L20.3388 4.29289C20.5264 4.48043 20.6317 4.73478 20.6317 5H22.6317ZM21.753 2.87868C21.1904 2.31607 20.4274 2 19.6317 2V4C19.8969 4 20.1513 4.10536 20.3388 4.29289L21.753 2.87868ZM20.6317 5V19H22.6317V5H20.6317Z" fill="#454950"/>
</svg>
