<svg width="25" height="24" viewBox="0 0 25 24" fill="none" xmlns="http://www.w3.org/2000/svg">
<path d="M21.6317 10C21.6317 17 12.6317 23 12.6317 23C12.6317 23 3.63171 17 3.63171 10C3.63171 7.61305 4.57993 5.32387 6.26775 3.63604C7.95558 1.94821 10.2448 1 12.6317 1C15.0187 1 17.3078 1.94821 18.9957 3.63604C20.6835 5.32387 21.6317 7.61305 21.6317 10Z" stroke="#5D6066" strokeWidth="2" strokeLinecap="round" strokeLinejoin="round"/>
<path d="M12.6317 13C14.2886 13 15.6317 11.6569 15.6317 10C15.6317 8.34315 14.2886 7 12.6317 7C10.9749 7 9.63171 8.34315 9.63171 10C9.63171 11.6569 10.9749 13 12.6317 13Z" stroke="#5D6066" strokeWidth="2" strokeLinecap="round" strokeLinejoin="round"/>
</svg>
