<svg width="21" height="20" viewBox="0 0 21 20" fill="none" xmlns="http://www.w3.org/2000/svg">
<path d="M18.1317 8.33325C18.1317 14.1666 10.6317 19.1666 10.6317 19.1666C10.6317 19.1666 3.13171 14.1666 3.13171 8.33325C3.13171 6.34413 3.92189 4.43647 5.32841 3.02995C6.73494 1.62343 8.64259 0.833252 10.6317 0.833252C12.6208 0.833252 14.5285 1.62343 15.935 3.02995C17.3415 4.43647 18.1317 6.34413 18.1317 8.33325Z" stroke="#5D6066" strokeWidth="1.5" strokeLinecap="round" strokeLinejoin="round"/>
<path d="M10.6317 10.8333C12.0124 10.8333 13.1317 9.71396 13.1317 8.33325C13.1317 6.95254 12.0124 5.83325 10.6317 5.83325C9.251 5.83325 8.13171 6.95254 8.13171 8.33325C8.13171 9.71396 9.251 10.8333 10.6317 10.8333Z" stroke="#5D6066" strokeWidth="1.5" strokeLinecap="round" strokeLinejoin="round"/>
</svg>
