<svg width="25" height="24" viewBox="0 0 25 24" fill="none" xmlns="http://www.w3.org/2000/svg">
<path d="M21.6317 15.9999V7.9999C21.6314 7.64918 21.5388 7.30471 21.3633 7.00106C21.1877 6.69742 20.9355 6.44526 20.6317 6.2699L13.6317 2.2699C13.3277 2.09437 12.9828 2.00195 12.6317 2.00195C12.2806 2.00195 11.9358 2.09437 11.6317 2.2699L4.63171 6.2699C4.32798 6.44526 4.07569 6.69742 3.90018 7.00106C3.72466 7.30471 3.63207 7.64918 3.63171 7.9999V15.9999C3.63207 16.3506 3.72466 16.6951 3.90018 16.9987C4.07569 17.3024 4.32798 17.5545 4.63171 17.7299L11.6317 21.7299C11.9358 21.9054 12.2272 21.9999 12.6317 21.9999C13.0362 21.9999 13.3277 21.9054 13.6317 21.7299L20.6317 17.7299C20.9355 17.5545 21.1877 17.3024 21.3633 16.9987C21.5388 16.6951 21.6314 16.3506 21.6317 15.9999Z" stroke="#5D6066" strokeWidth="2" stroke-miterlimit="16" strokeLinecap="round"/>
<path d="M3.9017 6.95996L12.6317 12.01L21.3617 6.95996" stroke="#5D6066" strokeWidth="2" strokeLinecap="round" strokeLinejoin="round"/>
</svg>
